<svg viewBox="0 0 24 24" width="44" height="44" fill="#7289da" xmlns="http://www.w3.org/2000/svg">
<path d="M20.4 4.55A19.791 19.791 0 0 0 16.86 3a.137.137 0 0 0-.14.07c-.61.897-1.28 2.066-1.75 2.982A19.945 19.945 0 0 0 8.03 6.05c-.47-.917-1.15-2.085-1.75-2.982A.133.133 0 0 0 6.14 3a19.806 19.806 0 0 0-3.54 1.55c-.06.031-.09.089-.07.145C3.52 9.86 6.07 15.377 6.08 15.396c.01.022.03.042.05.048a13.112 13.112 0 0 0 2.618.81c.116.03.23-.035.263-.15.058-.204.113-.398.16-.58a.134.134 0 0 0-.088-.158c-.288-.087-.564-.19-.828-.309a.13.13 0 0 1-.059-.173c.06-.134.12-.268.179-.398a.123.123 0 0 1 .162-.064c1.708.711 3.572.711 5.277 0a.122.122 0 0 1 .162.064c.06.13.12.264.18.398a.13.13 0 0 1-.059.173 7.235 7.235 0 0 1-.827.309.133.133 0 0 0-.089.158c.047.182.101.376.159.58.032.116.146.181.263.15.827-.176 1.773-.541 2.618-.81.021-.007.04-.027.05-.049.012-.018 2.56-5.535 3.53-10.7a.141.141 0 0 0-.073-.146ZM9.68 13.056c-.498 0-.902-.459-.902-1.024 0-.565.404-1.024.902-1.024.5 0 .904.459.904 1.024 0 .565-.404 1.024-.904 1.024Zm4.64 0c-.5 0-.904-.459-.904-1.024 0-.565.404-1.024.904-1.024.498 0 .902.459.902 1.024 0 .565-.404 1.024-.902 1.024Z"/>
</svg>